<svg viewBox="0 0 512 512" xmlns="http://www.w3.org/2000/svg">
  <defs>
    <linearGradient id="textGrad" x1="0%" y1="0%" x2="0%" y2="100%">
      <stop offset="0%" style="stop-color:#FFFFFF;stop-opacity:1" />
      <stop offset="100%" style="stop-color:#E2E8F0;stop-opacity:1" />
    </linearGradient>
  </defs>

  <rect x="0" y="0" width="512" height="512" rx="120" fill="#171923" />
  
  <g transform="translate(56, 156)">
    
    <path d="M 0 0 H 60 C 110 0, 140 40, 140 100 C 140 160, 110 200, 60 200 H 0 V 0 Z M 40 40 V 160 H 60 C 90 160, 100 140, 100 100 C 100 60, 90 40, 60 40 H 40 Z" fill="url(#textGrad)" />
    
    <path d="M 160 0 H 220 C 260 0, 280 30, 280 70 C 280 110, 260 140, 220 140 H 200 V 200 H 160 V 0 Z M 200 40 V 100 H 220 C 235 100, 240 90, 240 70 C 240 50, 235 40, 220 40 H 200 Z" fill="url(#textGrad)" />
    
    <path d="M 300 0 H 400 V 40 H 340 V 80 H 390 V 120 H 340 V 200 H 300 V 0 Z" fill="url(#textGrad)" />

    <rect x="300" y="230" width="100" height="20" rx="4" fill="#00C6FF" />
    
  </g>
</svg>

